<svg width="1440.000000" height="794.000000" viewBox="0 0 1990 794" preserveAspectRatio="none" fill="none" xmlns="http://www.w3.org/2000/svg" xmlns:xlink="http://www.w3.org/1999/xlink">
	<desc>
			Created with Pixso.
	</desc>
	<defs>
		<filter id="filter_874_11108_dd" x="-2.248779" y="215.247299" width="1445.750244" height="405.832764" filterUnits="userSpaceOnUse" color-interpolation-filters="sRGB">
			<feFlood flood-opacity="0" result="BackgroundImageFix"/>
			<feBlend mode="normal" in="SourceGraphic" in2="BackgroundImageFix" result="shape"/>
			<feGaussianBlur stdDeviation="0.666667" result="effect_layerBlur_1"/>
		</filter>
		<filter id="filter_874_11109_dd" x="-2.248779" y="154.577271" width="1441.749756" height="413.125488" filterUnits="userSpaceOnUse" color-interpolation-filters="sRGB">
			<feFlood flood-opacity="0" result="BackgroundImageFix"/>
			<feBlend mode="normal" in="SourceGraphic" in2="BackgroundImageFix" result="shape"/>
			<feGaussianBlur stdDeviation="0.666667" result="effect_layerBlur_1"/>
		</filter>
		<filter id="filter_874_11110_dd" x="-2.248779" y="190.596588" width="1443.248291" height="400.602203" filterUnits="userSpaceOnUse" color-interpolation-filters="sRGB">
			<feFlood flood-opacity="0" result="BackgroundImageFix"/>
			<feBlend mode="normal" in="SourceGraphic" in2="BackgroundImageFix" result="shape"/>
			<feGaussianBlur stdDeviation="0.666667" result="effect_layerBlur_1"/>
		</filter>
		<clipPath id="clip874_10987">
			<rect id="Преимущества обучения в BITLAB ACADEMY" width="1440.000000" height="794.000000" fill="white" fill-opacity="0"/>
		</clipPath>
		<radialGradient gradientTransform="translate(-62 604.5) rotate(90) scale(216.5 351)" cx="0.000000" cy="0.000000" r="1.000000" id="paint_radial_874_11119_0" gradientUnits="userSpaceOnUse">
			<stop stop-color="#9D56F7"/>
			<stop offset="1.000000" stop-color="#9D56F7" stop-opacity="0.000000"/>
		</radialGradient>
		<radialGradient gradientTransform="translate(1441 205.5) rotate(90) scale(216.5 351)" cx="0.000000" cy="0.000000" r="1.000000" id="paint_radial_874_11120_0" gradientUnits="userSpaceOnUse">
			<stop stop-color="#EA4C1D"/>
			<stop offset="1.000000" stop-color="#EA4C1D" stop-opacity="0.000000"/>
		</radialGradient>
	</defs>
	<g clip-path="url(#clip874_10987)">
		<g opacity="0.500000" filter="url(#filter_874_11108_dd)">
			<path id="Vector 811" d="M23.99 314.53Q11.93 308.6 0.24 301.89L-0.25 302.76Q11.51 309.51 23.66 315.48Q83.92 345.11 153.59 355.62Q155.27 355.87 156.94 356.11Q249.15 369.36 346.48 346.99Q388.35 337.37 410.34 339.44Q428.03 341.1 435.1 350.64Q436.21 352.14 437.06 353.84Q442.54 364.78 438.29 387.11Q435.64 401.07 424.75 436.23Q410.6 481.98 405.08 508.1Q399.03 536.76 407.72 558.77Q410.14 564.9 413.63 570.35Q421.52 582.67 434.84 591.5Q452.55 603.23 477.13 607.15Q477.73 607.25 478.33 607.34Q501.29 610.81 525.38 606.78Q561.5 600.74 582.64 585.09Q590.67 579.14 596.76 571.62Q605.06 561.37 609.75 548.21Q616.54 529.13 616.59 500.74Q616.61 483.67 613.25 447.13Q609.12 402.25 609.91 380.43Q611.24 343.94 623.83 318.9Q626.79 312.99 630.24 307.39Q650.81 273.98 688.55 251.14Q696.51 246.33 704.81 242.21Q739.08 225.23 779.26 220.17Q828.62 213.95 869.55 227.81Q905.95 240.14 925.93 265.43Q929.81 270.35 933.07 275.75Q950.76 305.08 961.55 336.76Q963.95 343.82 966.01 351Q972.77 374.55 979.83 418.63Q984.72 449.23 988.23 464.58Q994.05 490.04 1003.04 511.19Q1007.27 521.16 1012.86 530.29Q1036.53 568.97 1084.51 592.77Q1087.87 594.43 1091.27 595.99Q1145.18 620.69 1211.19 618.96Q1265.24 617.55 1312.18 598.58Q1328.22 592.09 1343.42 583.56Q1380.27 562.88 1406.6 532.95Q1427.27 509.44 1441.45 480.21C1441.57 479.96 1441.47 479.67 1441.22 479.55C1440.97 479.42 1440.67 479.53 1440.55 479.78Q1426.43 508.87 1405.85 532.28Q1379.64 562.09 1342.94 582.69Q1327.78 591.19 1311.79 597.65Q1265.02 616.56 1211.18 617.96Q1145.28 619.69 1091.5 595Q1088.19 593.48 1084.94 591.87Q1037.13 568.15 1013.62 529.61Q1008.13 520.61 1003.96 510.8Q995 489.73 989.21 464.36Q985.71 449.04 980.81 418.47Q973.75 374.34 966.97 350.73Q964.89 343.48 962.46 336.34Q951.65 304.61 933.92 275.24Q930.58 269.69 926.58 264.65Q906.44 239.25 869.87 226.86Q828.71 212.93 779.13 219.18Q738.81 224.26 704.41 241.3Q696.05 245.44 688.04 250.29Q650.17 273.2 629.48 306.72Q625.96 312.43 622.93 318.45Q610.25 343.69 608.91 380.4Q608.12 402.27 612.25 447.22Q615.61 483.72 615.59 500.74Q615.55 528.95 608.8 547.88Q604.17 560.89 595.96 571.02Q589.96 578.43 582.04 584.29Q561.1 599.8 525.22 605.79Q501.21 609.81 478.34 606.33Q477.81 606.25 477.29 606.17Q452.92 602.28 435.39 590.67Q422.2 581.92 414.42 569.72Q411.02 564.39 408.65 558.4Q400.07 536.67 406.06 508.31Q411.56 482.24 425.71 436.53Q436.61 401.31 439.28 387.3Q443.59 364.63 437.96 353.39Q437.02 351.51 435.77 349.85Q428.41 340.13 410.43 338.44Q388.28 336.36 346.26 346.02Q249.05 368.36 156.96 355.1Q155.35 354.87 153.74 354.63Q84.17 344.13 23.99 314.53Z" fill="#F4F4F4" fill-opacity="1.000000" fill-rule="evenodd"/>
		</g>
		<g opacity="0.500000" filter="url(#filter_874_11109_dd)">
			<path id="Vector 812" d="M153.44 310.28Q68.57 298.13 0.24 258.94L-0.25 259.81Q68.24 299.09 153.29 311.26Q245.38 324.44 346.47 304.04Q416.38 289.93 453.4 295.25Q482.03 299.37 493.7 315.65Q495.98 318.83 497.62 322.47Q506.34 341.94 498.03 379.32Q492.45 404.46 472.7 459.44Q459.31 496.71 460.72 524.94Q461.88 548.24 474.01 558.22Q483.1 565.7 498.35 565.7Q526.21 565.7 542.53 554.97Q545.23 553.19 547.65 551.09Q558.46 541.71 563.7 525.91Q569.09 509.65 569.32 483.53Q569.46 467.74 567.1 432.54Q564.15 388.81 564.73 366.91Q565.7 329.99 574.81 303.72Q590.02 259.88 618.77 228.42Q631.7 214.28 647.36 202.63Q652.29 198.97 657.41 195.6Q699.14 168.19 753.78 160.43Q774.09 157.55 794.41 157.57Q830.5 157.61 866.58 166.8Q921.79 180.87 958.17 211.38Q988.75 237.02 1008.13 269.38Q1018.23 286.25 1025.29 304.94Q1033.44 326.56 1038.86 353.86Q1042.1 370.17 1046.59 402.42Q1050.23 428.54 1052.51 441.08Q1052.76 442.46 1053.05 443.82Q1057.56 464.63 1072.68 483.15Q1088.1 502.03 1112.61 516.25Q1136.81 530.29 1166.38 537.76Q1176.55 540.33 1186.86 542Q1207.21 545.29 1228.13 545.06Q1276.57 544.52 1317.11 526.34Q1335.42 518.12 1352.12 506.3Q1364.19 497.75 1374.81 487.66Q1418.5 446.15 1437.48 378.63C1437.56 378.36 1437.4 378.09 1437.14 378.01C1436.87 377.94 1436.59 378.09 1436.52 378.36Q1417.6 445.69 1374.03 487.03Q1363.5 497.02 1351.54 505.49Q1334.94 517.24 1316.73 525.41Q1276.37 543.53 1228.12 544.06Q1207.21 544.29 1186.86 540.99Q1176.67 539.33 1166.62 536.79Q1137.19 529.36 1113.11 515.38Q1088.76 501.26 1073.46 482.52Q1058.42 464.1 1053.99 443.42Q1053.72 442.17 1053.49 440.91Q1051.21 428.38 1047.57 402.28Q1043.07 370 1039.84 353.67Q1034.41 326.29 1026.22 304.59Q1019.14 285.8 1008.98 268.85Q989.52 236.36 958.82 210.61Q922.25 179.95 866.83 165.83Q830.64 156.61 794.45 156.57Q774.04 156.55 753.64 159.44Q698.88 167.21 657.03 194.66Q651.8 198.09 646.77 201.83Q630.96 213.58 617.92 227.87Q589.11 259.44 573.87 303.39Q564.7 329.81 563.73 366.88Q563.15 388.83 566.1 432.61Q568.47 467.77 568.32 483.52Q568.09 509.48 562.75 525.59Q557.57 541.23 546.86 550.45Q544.55 552.44 541.98 554.13Q525.92 564.7 498.35 564.7Q483.57 564.7 474.73 557.45Q462.86 547.71 461.72 524.89Q460.32 496.86 473.64 459.78Q493.41 404.73 499.01 379.54Q507.39 341.84 498.53 322.06Q496.81 318.22 494.39 314.88Q482.45 298.42 453.54 294.26Q416.35 288.92 346.27 303.06Q245.35 323.43 153.44 310.28Z" fill="#F4F4F4" fill-opacity="1.000000" fill-rule="evenodd"/>
		</g>
		<g opacity="0.500000" filter="url(#filter_874_11110_dd)">
			<path id="Vector 813" d="M0 282.55C87.03 332.47 206.49 354.96 346.37 326.73C539 287.85 464.33 380.08 442.68 474.19C434.74 508.73 409.32 594.58 498.35 588.38C653.42 577.57 560.95 419.91 597.75 313.81C647.68 169.88 846.67 183.77 894.5 209.5C960.5 245 1012.91 283.87 1023.5 434C1034.5 590 1331.5 683.5 1438.5 434" stroke="#F4F4F4" stroke-opacity="1.000000" stroke-width="1.000000" stroke-dasharray="20 20"/>
		</g>
		<ellipse id="Ellipse 1" cx="-62.000000" cy="604.500000" rx="351.000000" ry="216.500000" fill="url(#paint_radial_874_11119_0)" fill-opacity="0.300000"/>
		<ellipse id="Ellipse 2" cx="1441.000000" cy="205.500000" rx="351.000000" ry="216.500000" fill="url(#paint_radial_874_11120_0)" fill-opacity="0.300000"/>
	</g>
</svg>
